<svg xmlns="http://www.w3.org/2000/svg" viewBox="0 0 512 512" width="100%" height="100%">
  <rect width="512" height="512" rx="112" fill="#171207"/>
  <rect x="14" y="14" width="484" height="484" rx="100" fill="none" stroke="#f59e0b" stroke-width="14" stroke-opacity="0.9"/>
  <g id="icon-layer" stroke-linecap="round" stroke-linejoin="round">
    <path d="M145 210 A 111 111 0 0 1 367 210" fill="none" stroke="#b45309" stroke-width="6" stroke-dasharray="8 8"/>
    <path d="M175 210 A 81 81 0 0 1 337 210" fill="none" stroke="#d97706" stroke-width="6"/>
    <circle cx="210" cy="210" r="32" fill="#451a03" stroke="#f59e0b" stroke-width="8"/>
    <circle cx="210" cy="210" r="14" fill="#fbbf24"/>
    <line x1="242" y1="210" x2="340" y2="210" stroke="#f59e0b" stroke-width="10"/>
    <line x1="300" y1="210" x2="300" y2="238" stroke="#f59e0b" stroke-width="8"/>
    <line x1="330" y1="210" x2="330" y2="246" stroke="#f59e0b" stroke-width="8"/>
    <line x1="160" y1="300" x2="352" y2="120" stroke="#ef4444" stroke-width="10"/>
    <circle cx="256" cy="210" r="48" fill="none" stroke="#ef4444" stroke-width="6" stroke-dasharray="6 6"/>
  </g>
  <rect x="186" y="380" width="140" height="64" rx="16" fill="#291b08" stroke="#f59e0b" stroke-width="6"/>
  <text x="256" y="425" font-family="-apple-system, BlinkMacSystemFont, 'Segoe UI', Roboto, monospace" font-size="34" font-weight="900" fill="#fde68a" text-anchor="middle" letter-spacing="4">LEAK</text>
</svg>
